<?xml version="1.0" encoding="UTF-8" standalone="no"?>
<!-- Generator: https://ezgif.com/png-to-svg -->

<svg
   version="1.1"
   width="612"
   height="408"
   id="svg36"
   sodipodi:docname="404.svg"
   inkscape:version="1.4 (86a8ad7, 2024-10-11)"
   xmlns:inkscape="http://www.inkscape.org/namespaces/inkscape"
   xmlns:sodipodi="http://sodipodi.sourceforge.net/DTD/sodipodi-0.dtd"
   xmlns="http://www.w3.org/2000/svg"
   xmlns:svg="http://www.w3.org/2000/svg">
  <sodipodi:namedview
     id="namedview36"
     pagecolor="#0b1816"
     bordercolor="#000000"
     borderopacity="0.25"
     inkscape:showpageshadow="2"
     inkscape:pageopacity="0.0"
     inkscape:pagecheckerboard="0"
     inkscape:deskcolor="#d1d1d1"
     inkscape:zoom="0.89308915"
     inkscape:cx="313.51853"
     inkscape:cy="124.2877"
     inkscape:window-width="1366"
     inkscape:window-height="697"
     inkscape:window-x="-8"
     inkscape:window-y="-8"
     inkscape:window-maximized="1"
     inkscape:current-layer="g36" />
  <defs
     id="defs36">
    <filter
       style="color-interpolation-filters:sRGB;"
       inkscape:label="Lightness-Contrast"
       id="filter48"
       x="0"
       y="0"
       width="1"
       height="1">
      <feColorMatrix
         values="2.1041 0 0 0 -0.55205 0 2.1041 0 0 -0.55205 0 0 2.1041 0 -0.55205 0 0 0 1 0"
         id="feColorMatrix48" />
    </filter>
    <filter
       style="color-interpolation-filters:sRGB"
       inkscape:label="Lightness-Contrast"
       id="filter48-4"
       x="0"
       y="0"
       width="1"
       height="1">
      <feColorMatrix
         values="2.1041 0 0 0 -0.55205 0 2.1041 0 0 -0.55205 0 0 2.1041 0 -0.55205 0 0 0 1 0"
         id="feColorMatrix48-8" />
    </filter>
    <filter
       style="color-interpolation-filters:sRGB"
       inkscape:label="Lightness-Contrast"
       id="filter48-2"
       x="0"
       y="0"
       width="1"
       height="1">
      <feColorMatrix
         values="2.1041 0 0 0 -0.55205 0 2.1041 0 0 -0.55205 0 0 2.1041 0 -0.55205 0 0 0 1 0"
         id="feColorMatrix48-4" />
    </filter>
    <filter
       style="color-interpolation-filters:sRGB"
       inkscape:label="Lightness-Contrast"
       id="filter48-5"
       x="0"
       y="0"
       width="1"
       height="1">
      <feColorMatrix
         values="2.1041 0 0 0 -0.55205 0 2.1041 0 0 -0.55205 0 0 2.1041 0 -0.55205 0 0 0 1 0"
         id="feColorMatrix48-1" />
    </filter>
    <filter
       style="color-interpolation-filters:sRGB"
       inkscape:label="Lightness-Contrast"
       id="filter48-1"
       x="0"
       y="0"
       width="1"
       height="1">
      <feColorMatrix
         values="2.1041 0 0 0 -0.55205 0 2.1041 0 0 -0.55205 0 0 2.1041 0 -0.55205 0 0 0 1 0"
         id="feColorMatrix48-15" />
    </filter>
    <filter
       style="color-interpolation-filters:sRGB"
       inkscape:label="Lightness-Contrast"
       id="filter48-5-7"
       x="0"
       y="0"
       width="1"
       height="1">
      <feColorMatrix
         values="2.1041 0 0 0 -0.55205 0 2.1041 0 0 -0.55205 0 0 2.1041 0 -0.55205 0 0 0 1 0"
         id="feColorMatrix48-1-6" />
    </filter>
  </defs>
  <g
     id="g36"
     style="opacity:0.60984848;filter:url(#filter48)">
    <g
       id="g48"
       style="opacity:0.15530303">
      <path
         d="m 96.691406,162.42187 c 22.000414,31.93663 66.965324,26.17851 96.985594,46.90807 45.73035,21.26056 98.20962,47.83709 149.47025,31.80578 42.59019,-14.92634 89.3965,-23.30936 126.60235,-51.29546 36.16225,-35.88134 72.44236,4.14655 110.78854,1.38784 52.85713,-6.96977 24.85396,60.79138 31.42982,91.61481 -0.0684,41.71967 0.16488,83.43934 0.0335,125.15897 -204,0 -408,0 -612.00000375,0 0,-81.33334 0,-162.66667 0,-244.00001 32.37936275,7.58306 66.26923875,-22.6483 96.68999975,-1.58 z"
         fill="#E49438"
         id="path1"
         style="fill:#828282" />
      <path
         d="m 96.691406,162.42187 c 15.271164,9.64016 27.228634,34.78858 49.254964,26.50114 15.0152,-2.81584 24.7422,9.6572 35.05504,15.07886 11.19589,10.64515 33.37697,9.25492 46.91266,20.1486 14.30606,11.75396 31.67672,14.08984 49.37109,15.5339 18.23843,3.91713 37.21225,13.73041 55.6197,4.35044 17.56391,-8.07712 36.05573,-14.32954 55.56989,-14.25833 19.05086,-4.00685 33.43327,-20.84836 52.71666,-23.15461 22.27056,-0.65704 33.26481,-23.56387 53.5077,-31.50871 30.03123,-9.96183 54.70531,22.01779 84.90954,17.29537 10.11802,-4.65774 47.52691,2.11426 19.39276,1.40334 -19.889,-0.41936 -28.47672,10.50294 -50.21601,12.83005 -17.22993,6.62448 -36.83073,8.90513 -53.33999,15.47195 -12.11672,-5.31076 -19.39479,13.86382 -36.13775,14.71613 -13.65768,7.35051 -35.34997,7.87752 -52.80625,7.80187 -23.76875,-0.94249 -46.01259,8.08985 -67.1475,17.8025 -22.68237,-0.2738 -45.97385,-2.11401 -68.21539,-7.0749 -16.05223,-4.55286 -30.55178,-2.51104 -44.61074,-1.41244 -24.68821,-4.19647 -48.74412,-11.65904 -73.22712,-17.09328 -33.13206,-11.00285 -64.217858,-31.79865 -100.556441,-29.955 -17.580905,-0.004 -35.161896,0.0642 -52.74281275,0.10312 0,-14.33333 0,-28.66666 0,-43 28.19967475,4.63495 55.06012875,-11.45573 83.00736275,-9.22191 5.106583,1.45649 9.335344,4.75574 13.682637,7.64191 z"
         fill="#DDA96A"
         id="path4"
         style="fill:#8f8f8f" />
      <path
         d="m 597.5,192.6875 c 17.48622,-5.39506 14.81726,9.833 14.5,21.18804 0,10.70732 0,21.41464 0,32.12196 -25.83016,-2.39743 -51.5397,-9.29 -77.78816,-6.58295 -11.29124,4.1066 -38.58556,-3.14251 -37.21184,12.53417 0,12.68292 0,25.36585 0,38.04878 15.12872,-5.51876 -1.80351,-48.43852 18.89914,-37.75992 8.01246,19.29457 -2.53261,43.11498 -18.17252,50.25869 1.78563,11.81892 -3.04317,34.83732 -14.72662,20.85082 0,-8.11653 0,-16.23306 0,-24.34959 -19.98091,-0.12968 -20.72681,-22.81961 -19.13,-38.03041 11.24428,-20.45264 10.95534,18.3163 15.13,27.03041 9.58331,-10.74968 -2.7804,-43.68881 3.83631,-62.7432 12.04857,-7.01228 35.64685,-9.66617 53.86119,-15.33555 15.57069,-8.18139 39.16816,-7.00863 43.12875,-15.11344 5.6989,-1.8064 11.72342,-2.30936 17.67375,-2.11781 z"
         fill="#DE913A"
         id="path7"
         style="fill:#808080" />
      <path
         d="m 152.10937,28.167969 c 7.8529,4.835058 12.21327,14.213616 10.98229,23.332637 -2.04975,5.010425 2.49614,5.343191 5.90771,6.497363 0.64026,-5.015314 6.82359,-5.908649 10.98299,-6.288318 7.5925,-0.791187 14.95866,5.183802 17.03014,12.165369 -0.86588,4.92572 0.40293,7.466417 5.79687,6.002949 4.72571,-1.480517 8.63056,2.068739 10.41994,4.12 2.43061,2.795654 6.13289,4.664614 10.54507,4.43 3.16291,-2.167584 7.41722,4.8016 3.58508,4.57 -64.78669,0 -129.573388,0 -194.360085,0 3.33107,-7.384468 13.56694,-1.817705 15.81781,-8.5025 4.159332,-6.952871 15.476811,2.558755 15.429612,-6.053594 2.366361,-9.13917 13.850549,-12.872822 21.752578,-8.443906 -0.72862,-6.58463 2.081703,-13.846598 9.540376,-14.512207 4.950919,-1.869756 13.587399,2.784733 12.413529,-5.69845 2.38481,-9.791868 12.04821,-15.541324 21.55629,-16.559871 7.83491,-1.074792 15.78525,1.114171 22.5998,4.940528 z"
         fill="#F4DFB4"
         id="path10"
         style="fill:#b6b6b6" />
      <path
         d="m 474,48 c 6.40162,6.699644 11.38319,14.905182 9.10051,24.293159 6.02401,5.880661 13.74776,-8.371608 22.17723,-2.95197 10.63276,1.484579 9.94194,13.982308 16.88557,19.047286 4.46197,2.706065 19.23385,3.211708 16.13237,8.902664 -10.5941,1.41777 -21.47918,0.434771 -32.20505,0.786794 -46.34411,-0.0043 -92.70531,0.07833 -139.03868,-0.235585 1.09269,-5.756934 12.82842,-6.279151 17.70988,-11.27801 7.31924,-0.107567 13.07846,-2.709741 13.76895,-10.967316 4.65523,-9.669897 18.49539,-12.76733 27.0754,-6.276835 3.7434,-6.534077 2.86889,-15.592396 10.25757,-19.913836 C 446.52876,40.803647 462.51223,41.393696 474,48 Z"
         fill="#F3DDB3"
         id="path11"
         style="fill:#b5b5b5;fill-opacity:1" />
      <path
         d="M0 0 C6.29 1.04 12.59 1.95 18.9 2.87 C21.16 3.21 23.42 3.56 25.68 3.91 C27.08 4.12 28.49 4.33 29.9 4.54 C31.14 4.73 32.38 4.92 33.66 5.12 C37.77 5.67 37.77 5.67 44.21 5.53 C44.21 22.69 44.21 39.85 44.21 57.53 C42.23 57.04 42.23 57.04 40.21 56.53 C37.3 50.82 36.11 46.01 35.96 39.66 C35.93 38.53 35.9 37.4 35.86 36.23 C35.8 33.86 35.74 31.48 35.69 29.11 C35.66 27.97 35.62 26.83 35.59 25.66 C35.56 24.63 35.54 23.6 35.51 22.54 C35.18 19.3 34.34 16.57 33.21 13.53 C31.23 13.2 29.25 12.87 27.21 12.53 C26.12 16.11 26.01 19.54 25.89 23.27 C25.85 24.56 25.81 25.86 25.77 27.19 C25.73 28.55 25.69 29.92 25.65 31.28 C25.6 32.66 25.56 34.04 25.52 35.42 C25.41 38.79 25.31 42.16 25.21 45.53 C24.22 45.53 23.23 45.53 22.21 45.53 C22.21 44.54 22.21 43.55 22.21 42.53 C20.93 42.42 19.65 42.3 18.33 42.18 C13.54 41.75 8.75 41.31 3.96 40.88 C1.89 40.69 -0.17 40.5 -2.24 40.32 C-5.22 40.05 -8.21 39.77 -11.19 39.5 C-12.56 39.38 -12.56 39.38 -13.95 39.25 C-18.33 38.86 -22.7 38.44 -27.08 37.99 C-30.66 37.62 -34.22 37.38 -37.83 37.29 C-38.89 37.25 -39.96 37.22 -41.06 37.19 C-42.16 37.16 -43.27 37.13 -44.42 37.09 C-57.26 36.68 -69.99 35.7 -82.79 34.53 C-82.79 22.98 -82.79 11.43 -82.79 -0.47 C-55.46 -3.33 -27.2 -4.6 0 0 Z "
         fill="#E59539"
         id="path12"
         style="fill:#838383"
         transform="translate(82.79150390625,254.46875)" />
      <path
         d="m 138,242 c 6.80249,8.9951 3.28463,20.83096 4.08909,31.21395 -0.0179,9.48181 0.50132,19.0382 -0.58425,28.45952 9.31348,3.38703 6.26721,-11.76936 8.01753,-17.58709 0.69976,-6.3386 -0.85995,-19.20508 9.49711,-15.91312 6.69006,7.77052 4.77971,20.32758 2.485,29.7238 -1.13801,10.69049 -13.64525,13.09527 -20.16483,15.89483 -0.77666,7.55853 -0.14912,15.22114 -0.80842,22.79558 3.81163,9.57189 -11.93392,12.45275 -13.45546,3.56762 -0.6392,-7.39809 2.36799,-20.00686 -8.37758,-20.9522 -10.4759,-5.44043 -12.02606,-18.34485 -11.00437,-28.88408 1.26356,-7.09818 -4.28044,-24.9263 7.44869,-22.91312 5.84508,4.34776 3.41225,12.95473 4.40305,19.31835 0.12548,7.80082 0.19564,16.01042 3.9524,23.07675 6.91238,3.61571 1.9612,-10.51142 3.44574,-14.22502 0.13757,-15.73934 -0.76077,-31.57091 0.38083,-47.25282 C 128.51018,243.84118 133.39133,240.45358 138,242 Z"
         fill="#7E6A23"
         id="path13"
         style="fill:#555555" />
      <path
         d="m 493,220 c 7.22313,15.60271 1.18672,33.09762 3.68746,49.49802 -0.20647,5.10218 -3.02917,17.39099 4.29855,16.95812 6.78992,-9.96428 -0.65006,-23.14999 5.27958,-33.31526 6.18087,-8.331 13.4993,3.6769 12.22071,10.17401 0.85643,11.84477 -2.21848,24.58089 -11.7249,32.44256 -9.3112,4.19852 -10.1366,16.8168 -9.23427,25.99711 0.98722,4.93911 -3.34717,6.34629 -7.60987,6.3489 -3.20669,0.002 -6.44972,-0.0604 -6.92793,-4.0802 -1.47217,-9.26149 4.51354,-28.12001 -10.32636,-28.03531 -8.36022,-4.12192 -9.2733,-15.17306 -9.19624,-23.55206 -0.50408,-6.24356 -0.98813,-20.9704 9.06367,-14.78858 8.06842,7.78487 -2.14715,19.43913 5.92552,27.15883 7.74248,2.56156 3.18742,-11.02228 3.82013,-15.62569 -1.13515,-15.42447 -2.38342,-31.17838 1.28527,-46.37336 1.71001,-3.38018 6.19391,-3.8128 9.43868,-2.80709 z"
         fill="#766421"
         id="path14"
         style="fill:#4f4f4f"
         sodipodi:nodetypes="cccccccscccccccc" />
      <path
         d="M0 0 C2 0.02 4 0.03 6 0.04 C10.83 0.07 15.67 0.13 20.5 0.19 C18.07 1.81 16.19 2.8 13.5 3.81 C12.82 4.07 12.14 4.33 11.44 4.6 C9.5 5.19 9.5 5.19 6.5 5.19 C6.5 5.85 6.5 6.51 6.5 7.19 C5.48 7.55 5.48 7.55 4.45 7.92 C-0.05 9.54 -4.52 11.18 -8.94 13 C-20.67 17.74 -32.74 21.79 -44.87 25.36 C-47.47 26.13 -47.47 26.13 -49.79 27.16 C-60.88 31.38 -72.52 32.86 -84.26 31.44 C-86.93 31.14 -89.6 30.93 -92.27 30.73 C-120.27 28.61 -120.27 28.61 -132.5 25.19 C-132.5 24.53 -132.5 23.87 -132.5 23.19 C-124.98 21.82 -117.68 21.11 -110.05 20.94 C-91.02 20.51 -74.53 16.39 -57.05 9.05 C-38.46 1.29 -19.87 -0.26 0 0 Z "
         fill="#E99839"
         id="path16"
         style="fill:#858585"
         transform="translate(334.5,324.8125)" />
      <path
         d="m 126,119 c 3.87407,5.45301 4.46917,12.30631 12.82789,10.06069 5.31188,1.79087 14.70799,2.26031 15.47458,8.42757 -7.07596,1.276 -14.72174,0.13175 -22.02338,0.50848 C 113.85272,137.98648 95.426361,138.01594 77,138 c 6.982614,-5.16511 11.002114,-12.61745 20.635513,-11.5026 5.287957,-8.00471 15.309627,-14.17064 25.443567,-8.96905 l 1.50456,0.68521 z"
         fill="#EDDBB4"
         id="path18"
         style="fill:#b2b2b2" />
      <path
         d="m 130,253 c 4.34726,5.58291 1.35356,12.91145 2.12611,19.32938 0.12488,23.88929 -0.11871,47.7804 -0.12618,71.67062 5.59456,1.87386 -5.67876,1.8448 -4.77064,-2.60392 -0.85706,-6.42062 0.82016,-13.40736 -2.23268,-19.45381 -9.31961,-2.7022 -17.5402,-11.18015 -17.2557,-21.32078 -0.51386,-9.45466 0.7364,-18.92691 -0.0943,-28.37288 5.15802,-3.82894 6.98408,5.03332 5.79148,8.67554 -0.16303,9.9471 0.55029,19.91966 1.78869,29.76913 1.78245,4.29361 7.69778,6.18276 11.87017,6.59655 C 127.25508,296.19135 127.72374,275.09696 128,254 l 1,-0.5 z"
         fill="#65551C"
         id="path20"
         style="fill:#444444" />
      <path
         d="m 508,138 c 2.94584,1.26922 4.45141,5.39407 6.07727,6.73181 4.39504,-1.1076 9.2426,-0.5535 13.0656,1.75285 2.74904,3.40116 -1.32538,4.12788 -3.92444,3.51531 -14.40614,0 -28.81229,0 -43.21843,0 0.74693,-3.86124 4.85105,-5.84551 8.45613,-4.68703 4.72951,0.45812 3.93392,-5.49307 7.56186,-6.92819 C 499.64332,136.30961 504.18354,136.71211 508,138 Z"
         fill="#EADBB4"
         id="path22"
         style="fill:#b1b1b1" />
      <path
         d="m 472,255 c 1.29526,1.81317 2.34674,3.87713 2.43154,6.14701 0.47268,4.71245 0.5913,9.44967 1.00903,14.16553 0.39102,4.41596 2.11261,8.5423 3.55943,12.68746 1.20417,0.4618 2.94847,1.1934 4,0.82524 0,-1.94175 0,-3.88349 0,-5.82524 0.53922,-0.002 1.25267,-0.17824 1,0.61165 0,2.12945 0,4.2589 0,6.38835 -1.35999,0.34071 -3.03948,0.40676 -4.11723,1.23446 -0.29426,0.58851 -0.58851,1.17703 -0.88277,1.76554 -2.2022,-0.475 -4.4503,-0.81699 -6.60781,-1.45016 -1.83259,-0.16483 -1.81801,-2.1044 -2.20865,-3.513 -0.6646,-3.62959 -0.51593,-7.3458 -0.73827,-11.01621 -0.0512,-3.94412 -0.47937,-7.87048 -1.22518,-11.74265 0.17496,-1.23913 -0.53959,-1.42289 -1.53077,-1.27798 -0.61842,0.16479 -0.9952,-0.25379 -1.36897,-0.67965 C 464.88024,262.88024 464.44012,262.44012 464,262 c 0.10214,-2.36164 0.4323,-4.70502 1,-7 1.75005,-1.01765 3.87675,-1.03649 5.75105,-0.37104 0.41748,0.11976 0.83289,0.24651 1.24895,0.37104 z"
         fill="#846E25"
         id="path25"
         style="fill:#575757" />
      <path
         d="M0 0 C2.96 0.96 5.54 2.08 8 4 C9 6.75 9 6.75 9 9 C5.34 11.44 3.47 11.27 -0.88 11.25 C-2.09 11.26 -3.3 11.26 -4.55 11.27 C-7.82 11.01 -10.07 10.41 -13 9 C-12.67 6.02 -12.13 4.19 -10.44 1.69 C-6.99 -0.7 -4 -0.71 0 0 Z "
         fill="#C1732A"
         id="path26"
         style="fill:#696969"
         transform="translate(456,351)" />
      <path
         d="m 127,332 c 3.34387,3.26005 -0.4634,9.31839 3.13132,12.04482 3.61096,-0.0919 7.37498,-2.96066 11.00196,-2.97696 0.58523,5.85962 -8.02822,6.19161 -11.56694,7.57944 -10.08385,0.76969 -20.22155,0.56052 -30.317954,0.42939 -5.556369,-3.40776 3.591524,-3.25761 6.031584,-4.09086 C 112.4307,343.63366 119.70976,342.71446 127,343 Z"
         fill="#C7812D"
         id="path27"
         style="fill:#717171"
         sodipodi:nodetypes="cccccccc" />
      <path
         d="m 542,301 c 1.18664,0.45983 1.32226,1.94038 1.44896,3.03375 0.17938,1.47663 -0.0576,3.00839 0.35132,4.45139 0.63259,0.97061 1.96355,-0.42919 1.86161,-1.27885 0.55016,-1.53212 2.00741,-2.75482 3.62279,-2.99048 1.45455,-0.19586 1.52147,1.61629 1.0649,2.55194 -0.40376,0.8415 -1.01939,1.6018 -1.31188,2.5155 -0.33408,0.95089 -0.76934,1.97069 -0.56381,2.9933 0.8127,0.80999 1.67794,-0.75866 2.40785,-1.08889 0.81273,-0.40542 1.93973,-0.95695 2.74761,-0.27612 0.72281,0.91418 -1.02279,1.71008 -0.26369,3.11514 -0.84038,1.55423 -3.66632,0.52698 -5.50282,0.12106 -5.78058,1.90467 -10.948,4.66654 -16.95237,3.69849 2.51765,-1.70319 3.20372,-2.2693 4.14958,-2.31816 1.23626,-0.29479 -0.0183,0.22685 1.08887,-0.47232 0.87959,-0.80137 -0.0536,-1.9438 -0.60758,-2.64788 -0.91794,-1.36363 -2.13968,-5.25133 -1.29111,-6.58486 0.61856,-1.19177 3.62996,1.32592 4.04122,2.38394 0.4299,0.77548 0.94885,-0.97244 1.2656,-1.43173 C 540.41695,304.8693 540.8105,302.75123 542,301 Z"
         fill="#C98130"
         id="path29"
         style="fill:#727272"
         sodipodi:nodetypes="cccccccccccccccccccc" />
      <path
         d="m 511.02193,340.88364 c 1.18664,0.45983 1.32226,1.94038 1.44896,3.03375 0.17938,1.47663 -0.0576,3.00839 0.35132,4.45139 0.63259,0.97061 1.96355,-0.42919 1.86161,-1.27885 0.55016,-1.53212 2.00741,-2.75482 3.62279,-2.99048 1.45455,-0.19586 1.52147,1.61629 1.0649,2.55194 -0.40376,0.8415 -1.01939,1.6018 -1.31188,2.5155 -0.33408,0.95089 -0.76934,1.97069 -0.56381,2.9933 0.8127,0.80999 1.67794,-0.75866 2.40785,-1.08889 0.81273,-0.40542 1.93973,-0.95695 2.74761,-0.27612 0.72281,0.91418 -1.02279,1.71008 -0.26369,3.11514 -0.84038,1.55423 -3.66632,0.52698 -5.50282,0.12106 -5.78058,1.90467 -10.948,4.66654 -16.95237,3.69849 2.51765,-1.70319 3.20372,-2.2693 4.14958,-2.31816 1.23626,-0.29479 -0.0183,0.22685 1.08887,-0.47232 0.87959,-0.80137 -0.0536,-1.9438 -0.60758,-2.64788 -0.91794,-1.36363 -2.13968,-5.25133 -1.29111,-6.58486 0.61856,-1.19177 3.62996,1.32592 4.04122,2.38394 0.4299,0.77548 0.94885,-0.97244 1.2656,-1.43173 0.8599,-1.90592 1.25345,-4.02399 2.44295,-5.77522 z"
         fill="#C98130"
         id="path29-9"
         style="opacity:0.64852608;fill:#727272;fill-opacity:1;filter:url(#filter48)"
         sodipodi:nodetypes="cccccccccccccccccccc" />
      <path
         d="m 58.475536,327.16765 c 1.18664,0.45983 1.32226,1.94038 1.44896,3.03375 0.17938,1.47663 -0.0576,3.00839 0.35132,4.45139 0.63259,0.97061 1.96355,-0.42919 1.86161,-1.27885 0.55016,-1.53212 2.00741,-2.75482 3.62279,-2.99048 1.45455,-0.19586 1.52147,1.61629 1.0649,2.55194 -0.40376,0.8415 -1.01939,1.6018 -1.31188,2.5155 -0.33408,0.95089 -0.76934,1.97069 -0.56381,2.9933 0.8127,0.80999 1.67794,-0.75866 2.40785,-1.08889 0.81273,-0.40542 1.93973,-0.95695 2.74761,-0.27612 0.72281,0.91418 -1.02279,1.71008 -0.26369,3.11514 -0.84038,1.55423 -3.66632,0.52698 -5.50282,0.12106 -5.78058,1.90467 -10.948,4.66654 -16.95237,3.69849 2.51765,-1.70319 3.20372,-2.2693 4.14958,-2.31816 1.23626,-0.29479 -0.0183,0.22685 1.08887,-0.47232 0.87959,-0.80137 -0.0536,-1.9438 -0.60758,-2.64788 -0.91794,-1.36363 -2.13968,-5.25133 -1.29111,-6.58486 0.61856,-1.19177 3.62996,1.32592 4.04122,2.38394 0.4299,0.77548 0.94885,-0.97244 1.2656,-1.43173 0.8599,-1.90592 1.25345,-4.02399 2.44295,-5.77522 z"
         fill="#C98130"
         id="path29-9-7"
         style="opacity:0.648526;fill:#727272;fill-opacity:1;filter:url(#filter48-5)"
         sodipodi:nodetypes="cccccccccccccccccccc" />
      <path
         d="m 82.378274,261.67738 c 1.18664,0.45983 1.32226,1.94038 1.44896,3.03375 0.17938,1.47663 -0.0576,3.00839 0.35132,4.45139 0.63259,0.97061 1.96355,-0.42919 1.86161,-1.27885 0.55016,-1.53212 2.00741,-2.75482 3.62279,-2.99048 1.45455,-0.19586 1.52147,1.61629 1.0649,2.55194 -0.40376,0.8415 -1.01939,1.6018 -1.31188,2.5155 -0.33408,0.95089 -0.76934,1.97069 -0.56381,2.9933 0.8127,0.80999 1.67794,-0.75866 2.40785,-1.08889 0.81273,-0.40542 1.93973,-0.95695 2.74761,-0.27612 0.72281,0.91418 -1.02279,1.71008 -0.26369,3.11514 -0.84038,1.55423 -3.66632,0.52698 -5.50282,0.12106 -5.78058,1.90467 -10.948,4.66654 -16.95237,3.69849 2.51765,-1.70319 3.20372,-2.2693 4.14958,-2.31816 1.23626,-0.29479 -0.0183,0.22685 1.08887,-0.47232 0.87959,-0.80137 -0.0536,-1.9438 -0.60758,-2.64788 -0.91794,-1.36363 -2.13968,-5.25133 -1.29111,-6.58486 0.61856,-1.19177 3.62996,1.32592 4.04122,2.38394 0.4299,0.77548 0.94885,-0.97244 1.2656,-1.43173 0.8599,-1.90592 1.25345,-4.02399 2.44295,-5.77522 z"
         fill="#C98130"
         id="path29-9-7-1"
         style="opacity:0.648526;fill:#727272;fill-opacity:1;filter:url(#filter48-5-7)"
         sodipodi:nodetypes="cccccccccccccccccccc" />
      <path
         d="m 410.85706,270.31728 c 1.18664,0.45983 1.32226,1.94038 1.44896,3.03375 0.17938,1.47663 -0.0576,3.00839 0.35132,4.45139 0.63259,0.97061 1.96355,-0.42919 1.86161,-1.27885 0.55016,-1.53212 2.00741,-2.75482 3.62279,-2.99048 1.45455,-0.19586 1.52147,1.61629 1.0649,2.55194 -0.40376,0.8415 -1.01939,1.6018 -1.31188,2.5155 -0.33408,0.95089 -0.76934,1.97069 -0.56381,2.9933 0.8127,0.80999 1.67794,-0.75866 2.40785,-1.08889 0.81273,-0.40542 1.93973,-0.95695 2.74761,-0.27612 0.72281,0.91418 -1.02279,1.71008 -0.26369,3.11514 -0.84038,1.55423 -3.66632,0.52698 -5.50282,0.12106 -5.78058,1.90467 -10.948,4.66654 -16.95237,3.69849 2.51765,-1.70319 3.20372,-2.2693 4.14958,-2.31816 1.23626,-0.29479 -0.0183,0.22685 1.08887,-0.47232 0.87959,-0.80137 -0.0536,-1.9438 -0.60758,-2.64788 -0.91794,-1.36363 -2.13968,-5.25133 -1.29111,-6.58486 0.61856,-1.19177 3.62996,1.32592 4.04122,2.38394 0.4299,0.77548 0.94885,-0.97244 1.2656,-1.43173 0.8599,-1.90592 1.25345,-4.02399 2.44295,-5.77522 z"
         fill="#C98130"
         id="path29-9-8"
         style="opacity:0.648526;fill:#727272;fill-opacity:1;filter:url(#filter48-4)"
         sodipodi:nodetypes="cccccccccccccccccccc" />
      <path
         d="m 194.875,320.1875 c 2.52714,1.56724 6.03458,7.43621 0.80467,7.58094 -4.96869,0.65483 -9.98281,0.11037 -14.97169,0.26318 -1.57014,-1.91093 -0.49772,-4.75564 -0.55385,-6.96319 1.68069,-1.66196 4.27634,-2.06439 6.54828,-2.3532 2.79094,-0.19867 5.61621,0.35034 8.17259,1.47227 z"
         fill="#C77E33"
         id="path30"
         style="fill:#707070" />
      <path
         d="m 160,371 c 2.54721,1.27656 7.64859,6.36984 3.18183,8.05181 C 157.45511,378.94204 151.72723,379.02663 146,379 c -1.0225,-4.0372 1.70722,-8.41118 6.09567,-8.288 2.62346,-0.43425 5.30324,-0.16691 7.90433,0.288 z"
         fill="#B46923"
         id="path31"
         style="fill:#606060" />
      <path
         d="M0 0 C0.33 0.99 0.66 1.98 1 3 C2.98 2.67 4.96 2.34 7 2 C7.08 3.9 7.14 5.79 7.19 7.69 C7.22 8.74 7.26 9.8 7.29 10.89 C6.96 14.43 6.22 16.23 4 19 C2.68 19.33 1.36 19.66 0 20 C0 13.4 0 6.8 0 0 Z "
         fill="#DD9D43"
         id="path32"
         style="fill:#868686"
         transform="translate(497,270)" />
      <path
         d="M0 0 C3.8 0.1 6.22 0.79 9.19 3.31 C10 5.5 10 5.5 10.19 7.31 C7.1 8.21 4.33 8.45 1.12 8.44 C-0.16 8.44 -0.16 8.44 -1.47 8.45 C-3.81 8.31 -3.81 8.31 -6.81 7.31 C-6 2.19 -5.58 0.46 0 0 Z "
         fill="#AE601F"
         id="path33"
         style="fill:#5b5b5b"
         transform="translate(54.8125,372.6875)" />
      <path
         d="m 576,337 c 4.37936,0.76808 2.93198,7.77535 -1.57355,6.21942 -4.8125,0.18895 -9.61647,0.54198 -14.42645,0.78058 -0.81051,-2.61841 0.77058,-3.45059 3.01499,-3 3.26938,0.98887 1.55536,-3.98078 4.90889,-4.28425 2.64709,-1.16833 5.42899,-0.37756 8.07612,0.28425 z"
         fill="#D28736"
         id="path34"
         style="fill:#787878" />
      <path
         d="M0 0 C0.33 1.32 0.66 2.64 1 4 C-0.65 4.33 -2.3 4.66 -4 5 C3.03 5.24 9.18 4.79 16 3 C16 3.66 16 4.32 16 5 C18.31 5 20.62 5 23 5 C23 5.33 23 5.66 23 6 C19.35 6.84 15.97 7.13 12.22 7.13 C10.58 7.13 10.58 7.13 8.92 7.14 C7.79 7.13 6.66 7.13 5.5 7.12 C3.81 7.13 3.81 7.13 2.08 7.14 C0.99 7.14 -0.1 7.13 -1.22 7.13 C-2.21 7.13 -3.2 7.13 -4.22 7.13 C-6.91 7 -9.37 6.6 -12 6 C-11 4 -11 4 -9.38 3.38 C-6.23 2.88 -3.17 2.94 0 3 C0 2.01 0 1.02 0 0 Z "
         fill="#E19943"
         id="path36"
         style="fill:#858585"
         transform="translate(535,312)" />
    </g>
  </g>
</svg>
