<?xml version="1.0" encoding="UTF-8" standalone="no"?>
<!-- Generator: https://ezgif.com/png-to-svg -->

<svg
   version="1.1"
   width="612"
   height="408"
   id="svg36"
   sodipodi:docname="404.svg"
   inkscape:version="1.4 (86a8ad7, 2024-10-11)"
   xmlns:inkscape="http://www.inkscape.org/namespaces/inkscape"
   xmlns:sodipodi="http://sodipodi.sourceforge.net/DTD/sodipodi-0.dtd"
   xmlns="http://www.w3.org/2000/svg"
   xmlns:svg="http://www.w3.org/2000/svg">
  <sodipodi:namedview
     id="namedview36"
     pagecolor="#ffffff"
     bordercolor="#000000"
     borderopacity="0.25"
     inkscape:showpageshadow="2"
     inkscape:pageopacity="0.0"
     inkscape:pagecheckerboard="0"
     inkscape:deskcolor="#d1d1d1"
     inkscape:zoom="1.3529412"
     inkscape:cx="305.63043"
     inkscape:cy="204"
     inkscape:window-width="1366"
     inkscape:window-height="697"
     inkscape:window-x="-8"
     inkscape:window-y="-8"
     inkscape:window-maximized="1"
     inkscape:current-layer="g36" />
  <defs
     id="defs36">
    <filter
       style="color-interpolation-filters:sRGB;"
       inkscape:label="Lightness-Contrast"
       id="filter48"
       x="0"
       y="0"
       width="1"
       height="1">
      <feColorMatrix
         values="2.1041 0 0 0 -0.55205 0 2.1041 0 0 -0.55205 0 0 2.1041 0 -0.55205 0 0 0 1 0"
         id="feColorMatrix48" />
    </filter>
  </defs>
  <g
     id="g36"
     style="opacity:0.60984848;filter:url(#filter48)">
    <g
       id="g48"
       style="opacity:0.15530303">
      <path
         d="m 96.691406,162.42187 c 16.645544,16.42589 34.498434,34.03191 59.618204,26.9048 20.22906,11.92038 39.54515,25.19048 63.21025,29.83008 21.50198,19.64766 51.30876,17.77791 77.48155,25.84512 30.09411,12.11547 56.2007,-17.22999 86.13127,-14.5821 26.64618,-6.26132 48.87051,-24.9357 75.90181,-29.62983 17.52316,-12.43013 35.48983,-35.17546 59.66128,-25.73327 23.92908,6.8395 47.74536,25.02425 73.60274,15.12619 23.26687,-6.18866 20.35954,18.58593 19.7029,33.31178 0,61.50241 0,123.00483 0,184.50724 -204,0 -408,0 -612.00000375,0 0,-81.33334 0,-162.66667 0,-244.00001 C 30.36081,170.44218 60.873934,146.56967 90.134965,158.06169 l 3.303117,2.15273 z"
         fill="#E49438"
         id="path1"
         style="fill:#828282" />
      <path
         d="M0 0 C4.34 0.94 8.78 1.41 13.19 1.9 C13.19 55.36 13.19 108.82 13.19 163.9 C-52.85 164.31 -52.85 164.31 -80.61 164.39 C-86.96 164.41 -93.31 164.43 -99.66 164.45 C-100.46 164.45 -101.25 164.46 -102.07 164.46 C-114.86 164.5 -127.64 164.58 -140.42 164.67 C-153.57 164.77 -166.73 164.82 -179.89 164.84 C-187.26 164.86 -194.63 164.89 -202 164.96 C-259.16 165.52 -259.16 165.52 -281.77 155.15 C-290.95 151.38 -300.95 149.51 -310.68 147.78 C-320.53 145.99 -330.2 143.86 -339.87 141.28 C-340.74 141.05 -341.6 140.82 -342.49 140.58 C-344.6 140.02 -346.7 139.46 -348.81 138.9 C-348.81 138.24 -348.81 137.58 -348.81 136.9 C-352.11 136.24 -355.41 135.58 -358.81 134.9 C-358.81 134.24 -358.81 133.58 -358.81 132.9 C-359.34 132.85 -359.88 132.8 -360.43 132.75 C-370.09 131.35 -378.3 126.41 -386.78 121.84 C-391.54 119.34 -396.23 117.74 -401.43 116.4 C-403.02 115.98 -404.61 115.56 -406.2 115.13 C-407.37 114.82 -407.37 114.82 -408.56 114.51 C-410.61 113.96 -412.64 113.37 -414.67 112.77 C-420.96 110.89 -427.08 109.44 -433.57 108.47 C-440.06 107.33 -446.43 105.57 -452.81 103.9 C-452.81 103.24 -452.81 102.58 -452.81 101.9 C-451.16 101.9 -449.51 101.9 -447.81 101.9 C-447.81 101.24 -447.81 100.58 -447.81 99.9 C-444.34 99.41 -444.34 99.41 -440.81 98.9 C-441.47 97.91 -442.13 96.92 -442.81 95.9 C-445.39 95.65 -445.39 95.65 -447.81 95.9 C-448.14 97.22 -448.47 98.54 -448.81 99.9 C-454.96 100 -454.96 100 -456.81 99.9 C-457.81 98.9 -457.81 98.9 -457.92 95.94 C-457.92 94.65 -457.91 93.36 -457.91 92.02 C-457.9 91.34 -457.9 90.65 -457.9 89.94 C-457.9 87.74 -457.88 85.54 -457.87 83.34 C-457.87 81.85 -457.86 80.36 -457.86 78.87 C-457.85 75.22 -457.83 71.56 -457.81 67.9 C-457.2 67.78 -456.6 67.65 -455.97 67.52 C-455.17 67.35 -454.37 67.18 -453.55 67 C-452.76 66.84 -451.96 66.67 -451.15 66.5 C-446.74 65.38 -443.07 63.84 -440.49 59.86 C-439.5 57.9 -438.61 55.95 -437.81 53.9 C-437.48 54.56 -437.15 55.22 -436.81 55.9 C-436.07 55.89 -435.34 55.87 -434.58 55.86 C-427.45 55.77 -420.62 56.27 -413.56 57.21 C-397.74 59.18 -381.86 60.26 -365.96 61.39 C-361.01 61.74 -356.07 62.12 -351.12 62.54 C-336.32 63.76 -321.66 64.15 -306.81 63.9 C-307.95 63.64 -309.1 63.37 -310.27 63.1 C-311.76 62.74 -313.26 62.38 -314.75 62.03 C-315.88 61.77 -315.88 61.77 -317.03 61.5 C-318.97 61.03 -320.89 60.47 -322.81 59.9 C-323.14 59.24 -323.47 58.58 -323.81 57.9 C-323.48 57.24 -323.15 56.58 -322.81 55.9 C-318.85 55.9 -314.89 55.9 -310.81 55.9 C-310.48 54.91 -310.15 53.92 -309.81 52.9 C-305.71 50.39 -301.55 50.77 -296.92 50.93 C-294.82 51.15 -294.82 51.15 -293.81 49.9 C-292.12 49.83 -290.43 49.82 -288.75 49.84 C-287.83 49.85 -286.91 49.86 -285.96 49.87 C-285.25 49.88 -284.54 49.89 -283.81 49.9 C-284.8 50.89 -285.79 51.88 -286.81 52.9 C-286.48 53.89 -286.15 54.88 -285.81 55.9 C-286.14 56.56 -286.47 57.22 -286.81 57.9 C-285.51 57.88 -284.21 57.86 -282.87 57.84 C-281.52 57.82 -280.16 57.83 -278.81 57.9 C-278.48 58.23 -278.15 58.56 -277.81 58.9 C-277.48 58.24 -277.15 57.58 -276.81 56.9 C-274.17 56.9 -271.53 56.9 -268.81 56.9 C-269.14 57.56 -269.47 58.22 -269.81 58.9 C-269.15 58.57 -268.49 58.24 -267.81 57.9 C-267.81 57.24 -267.81 56.58 -267.81 55.9 C-266.81 55.82 -265.81 55.73 -264.78 55.64 C-261.06 55.32 -257.34 55 -253.61 54.68 C-252 54.54 -250.4 54.4 -248.79 54.26 C-246.47 54.06 -244.15 53.86 -241.83 53.66 C-241.12 53.6 -240.41 53.54 -239.67 53.47 C-236.72 53.21 -233.81 52.9 -230.89 52.37 C-226.73 51.74 -222.64 51.73 -218.43 51.69 C-216.56 51.67 -214.68 51.64 -212.8 51.61 C-211.82 51.6 -210.84 51.59 -209.84 51.57 C-186.71 51.23 -163.23 50.86 -140.62 45.45 C-137.62 44.87 -134.86 44.81 -131.81 44.9 C-131.58 45.69 -131.35 46.47 -131.12 47.28 C-130.06 50.02 -130.06 50.02 -127.75 51.03 C-126.78 51.32 -125.81 51.6 -124.81 51.9 C-121.84 52.89 -118.87 53.88 -115.81 54.9 C-115.81 62.82 -115.81 70.74 -115.81 78.9 C-128.3 77.77 -128.3 77.77 -134.62 76.15 C-135.3 75.98 -135.98 75.81 -136.68 75.63 C-141.11 74.46 -145.38 73.02 -149.68 71.4 C-175.7 61.84 -198.07 64.9 -223.75 73.77 C-224.74 74.11 -225.73 74.44 -226.74 74.79 C-228.83 75.55 -230.89 76.37 -232.93 77.25 C-243.57 81.66 -253.5 81.56 -264.87 81.46 C-284.84 81.34 -303.11 83.36 -321.75 90.9 C-324.04 91.79 -326.34 92.68 -328.64 93.56 C-330.25 94.18 -330.25 94.18 -331.88 94.8 C-337.42 96.88 -343.04 98.56 -348.81 99.9 C-349.53 100.07 -350.24 100.24 -350.98 100.42 C-357.52 101.86 -363.88 102.29 -370.56 102.46 C-372.67 102.54 -374.78 102.61 -376.89 102.68 C-377.9 102.72 -378.91 102.75 -379.95 102.79 C-385.58 103.01 -391.19 103.44 -396.81 103.9 C-396.81 104.56 -396.81 105.22 -396.81 105.9 C-395.86 105.88 -394.91 105.86 -393.93 105.84 C-390.81 105.9 -390.81 105.9 -388.81 106.9 C-371.94 109.83 -354.85 110.98 -337.8 112.34 C-269.73 117.77 -269.73 117.77 -259.07 123.9 C-253.55 126.35 -246.8 126.28 -240.81 126.9 C-239.59 127.03 -239.59 127.03 -238.35 127.16 C-222.7 128.8 -207.03 129.58 -191.31 130.15 C-189.63 130.21 -189.63 130.21 -187.92 130.28 C-176.22 130.69 -164.52 131.04 -152.81 130.9 C-154.13 130.61 -154.13 130.61 -155.48 130.32 C-165.13 128.22 -165.13 128.22 -168.81 123.9 C-167.49 123.57 -166.17 123.24 -164.81 122.9 C-165.47 122.57 -166.13 122.24 -166.81 121.9 C-166.81 121.24 -166.81 120.58 -166.81 119.9 C-163.22 119.15 -159.89 118.88 -156.25 118.96 C-150.78 118.99 -145.57 118.29 -140.18 117.4 C-139.27 117.26 -138.37 117.12 -137.43 116.97 C-135.22 116.62 -133.01 116.26 -130.81 115.9 C-131.14 116.89 -131.47 117.88 -131.81 118.9 C-132.47 118.57 -133.13 118.24 -133.81 117.9 C-134.14 118.89 -134.47 119.88 -134.81 120.9 C-132.83 121.23 -130.85 121.56 -128.81 121.9 C-128.81 122.56 -128.81 123.22 -128.81 123.9 C-127.82 123.9 -126.83 123.9 -125.81 123.9 C-125.15 122.25 -124.49 120.6 -123.81 118.9 C-123.15 119.23 -122.49 119.56 -121.81 119.9 C-121.81 120.56 -121.81 121.22 -121.81 121.9 C-112.82 123.9 -112.82 123.9 -103.81 122.9 C-103.48 122.24 -103.15 121.58 -102.81 120.9 C-98.93 121.78 -98.93 121.78 -97.81 122.9 C-97.15 120.59 -96.49 118.28 -95.81 115.9 C-94.82 115.9 -93.83 115.9 -92.81 115.9 C-91.36 122.18 -91.36 122.18 -93.31 125.34 C-96.61 127.4 -98.99 127.2 -102.81 126.9 C-102.81 128.22 -102.81 129.54 -102.81 130.9 C-101.49 130.57 -100.17 130.24 -98.81 129.9 C-98.81 130.56 -98.81 131.22 -98.81 131.9 C-100.79 132.23 -102.77 132.56 -104.81 132.9 C-104.81 133.89 -104.81 134.88 -104.81 135.9 C-84.1 137.47 -62.29 138.93 -41.81 134.9 C-45.07 132.99 -47.8 132.55 -51.56 132.28 C-53.04 132.17 -53.04 132.17 -54.54 132.05 C-55.29 132 -56.04 131.95 -56.81 131.9 C-56.81 130.58 -56.81 129.26 -56.81 127.9 C-56.15 127.9 -55.49 127.9 -54.81 127.9 C-54.44 127.1 -54.44 127.1 -54.06 126.28 C-52.51 123.34 -50.68 120.64 -48.81 117.9 C-49.59 118.4 -50.38 118.89 -51.18 119.4 C-53.81 120.9 -53.81 120.9 -55.81 120.9 C-56.14 121.89 -56.47 122.88 -56.81 123.9 C-59.37 125.59 -59.37 125.59 -61.81 126.9 C-60.83 121.63 -59.79 117.44 -56.81 112.9 C-56.11 110.71 -56.11 110.71 -55.81 108.9 C-56.8 108.9 -57.79 108.9 -58.81 108.9 C-59.07 109.44 -59.34 109.99 -59.61 110.54 C-61 113.28 -62.46 115.96 -63.93 118.65 C-64.47 119.64 -65.01 120.62 -65.57 121.64 C-66.18 122.76 -66.18 122.76 -66.81 123.9 C-67.14 123.9 -67.47 123.9 -67.81 123.9 C-68.06 115.97 -67.52 108.66 -65.81 100.9 C-72.38 106.8 -74.16 115.36 -74.81 123.9 C-78.07 119 -77.9 115.58 -77.81 109.9 C-78.47 109.9 -79.13 109.9 -79.81 109.9 C-79.84 111.96 -79.86 114.03 -79.87 116.09 C-79.89 117.81 -79.89 117.81 -79.91 119.57 C-79.82 122.5 -79.49 125.07 -78.81 127.9 C-81.91 124.92 -84.64 121.74 -87.34 118.39 C-88.85 116.64 -88.85 116.64 -91.81 115.9 C-91.81 115.24 -91.81 114.58 -91.81 113.9 C-90.16 113.9 -88.51 113.9 -86.81 113.9 C-86.81 112.91 -86.81 111.92 -86.81 110.9 C-89.45 111.23 -92.09 111.56 -94.81 111.9 C-94.81 111.24 -94.81 110.58 -94.81 109.9 C-95.47 109.9 -96.13 109.9 -96.81 109.9 C-96.81 109.24 -96.81 108.58 -96.81 107.9 C-96.07 107.92 -95.32 107.94 -94.56 107.96 C-91.57 108 -91.57 108 -87.81 106.9 C-87.48 101.95 -87.15 97 -86.81 91.9 C-88.13 91.9 -89.45 91.9 -90.81 91.9 C-90.81 90.25 -90.81 88.6 -90.81 86.9 C-82.56 86.9 -74.31 86.9 -65.81 86.9 C-77.34 81.96 -89.41 81.56 -101.81 80.9 C-101.84 77.88 -101.86 74.86 -101.87 71.84 C-101.88 70.99 -101.89 70.14 -101.9 69.27 C-101.93 59.35 -101.93 59.35 -100.81 54.9 C-98.92 53.55 -98.92 53.55 -96.56 52.84 C-90.46 50.54 -87.59 46.76 -84.7 41.03 C-82.06 34.99 -82.3 29.08 -82.43 22.59 C-82.43 21.42 -82.44 20.26 -82.44 19.06 C-82.36 12.18 -82.36 12.18 -84.81 5.9 C-86.46 5.9 -88.11 5.9 -89.81 5.9 C-93.46 13.97 -93.55 21.87 -93.98 30.61 C-94.08 32.29 -94.08 32.29 -94.18 34.01 C-94.23 35.02 -94.28 36.03 -94.33 37.07 C-94.88 40.35 -95.77 42.29 -97.81 44.9 C-99.13 45.23 -100.45 45.56 -101.81 45.9 C-101.81 30.72 -101.81 15.54 -101.81 -0.1 C-68.39 -7.17 -33.43 -7.95 0 0 Z "
         fill="#F5AD4E"
         id="path2"
         style="fill:#959595"
         transform="translate(598.80859375,244.09765625)" />
      <path
         d="m 597.5,192.6875 c 22.74734,-1.49886 17.99532,42.08393 9.2365,52.46393 -31.85171,-3.99856 -64.59,-9.53819 -96.95458,-3.12823 -20.57929,-1.76353 -14.53084,44.56962 -8.58132,44.02671 -1.47787,-15.66812 11.63104,-53.33344 18.2885,-17.87065 0.28224,19.73933 -46.80358,54.99509 -4.36885,57.79521 24.52598,3.38773 4.85681,2.86607 -4.54414,9.18896 2.18963,17.71931 -12.21165,21.34961 6.52491,31.19476 4.38484,-4.12454 0.46113,-17.32385 6.51073,-2.30773 2.61986,-22.6814 10.97111,-12.60747 10.96971,-2.14299 12.60803,-17.65382 -0.41646,9.66043 13.73165,4.1664 -18.31252,10.17681 23.03199,12.98666 -2.44454,15.89108 -18.04005,1.23331 -64.33101,4.70304 -40.56296,-19.09493 -19.31289,15.11121 -70.88631,-14.84862 -67.55486,13.15676 -41.73822,-0.20995 -83.97242,-1.59579 -124.21746,-13.61635 -35.55608,-5.68869 -72.04824,-3.5072 -107.21818,-11.94011 27.99811,-7.93149 58.22621,-7.35468 85.10783,-21.2213 31.13254,-7.68584 64.62642,-0.57161 94.14353,-15.51709 30.11237,-15.39308 60.49068,2.76758 90.04815,7.14857 26.76526,-15.47968 -37.7856,-49.33153 -3.80403,-63.90381 1.53535,12.95981 12.1552,43.94481 11.02673,12.82271 -9.59417,-28.44043 0.49382,-57.01467 34.29549,-54.94291 28.45933,-5.80414 53.94112,-19.27939 80.36719,-22.16899 z"
         fill="#F1A23F"
         id="path3"
         style="fill:#8d8d8d" />
      <path
         d="m 96.691406,162.42187 c 15.271164,9.64016 27.228634,34.78858 49.254964,26.50114 15.0152,-2.81584 24.7422,9.6572 35.05504,15.07886 11.19589,10.64515 33.37697,9.25492 46.91266,20.1486 14.30606,11.75396 31.67672,14.08984 49.37109,15.5339 18.23843,3.91713 37.21225,13.73041 55.6197,4.35044 17.56391,-8.07712 36.05573,-14.32954 55.56989,-14.25833 19.05086,-4.00685 33.43327,-20.84836 52.71666,-23.15461 22.27056,-0.65704 33.26481,-23.56387 53.5077,-31.50871 30.03123,-9.96183 54.70531,22.01779 84.90954,17.29537 10.11802,-4.65774 47.52691,2.11426 19.39276,1.40334 -19.889,-0.41936 -28.47672,10.50294 -50.21601,12.83005 -17.22993,6.62448 -36.83073,8.90513 -53.33999,15.47195 -12.11672,-5.31076 -19.39479,13.86382 -36.13775,14.71613 -13.65768,7.35051 -35.34997,7.87752 -52.80625,7.80187 -23.76875,-0.94249 -46.01259,8.08985 -67.1475,17.8025 -22.68237,-0.2738 -45.97385,-2.11401 -68.21539,-7.0749 -16.05223,-4.55286 -30.55178,-2.51104 -44.61074,-1.41244 -24.68821,-4.19647 -48.74412,-11.65904 -73.22712,-17.09328 -33.13206,-11.00285 -64.217858,-31.79865 -100.556441,-29.955 -17.580905,-0.004 -35.161896,0.0642 -52.74281275,0.10312 0,-14.33333 0,-28.66666 0,-43 28.19967475,4.63495 55.06012875,-11.45573 83.00736275,-9.22191 5.106583,1.45649 9.335344,4.75574 13.682637,7.64191 z"
         fill="#DDA96A"
         id="path4"
         style="fill:#8f8f8f" />
      <path
         d="M0 0 C1.26 0 1.26 0 2.54 0.01 C14.94 0.05 26.98 0.71 39.23 2.78 C45.51 3.82 51.82 4.73 58.12 5.66 C60.39 5.99 62.65 6.34 64.91 6.69 C66.31 6.9 67.72 7.11 69.12 7.32 C70.37 7.51 71.61 7.7 72.89 7.9 C77 8.45 77 8.45 83.44 8.31 C83.44 25.47 83.44 42.63 83.44 60.31 C81.46 59.82 81.46 59.82 79.44 59.31 C76.53 53.6 75.34 48.79 75.19 42.45 C75.16 41.31 75.13 40.18 75.09 39.01 C75.03 36.64 74.97 34.26 74.92 31.89 C74.89 30.75 74.85 29.62 74.82 28.45 C74.79 27.41 74.77 26.38 74.74 25.32 C74.41 22.08 73.57 19.35 72.44 16.31 C70.46 15.98 68.48 15.65 66.44 15.31 C64.64 21.04 65.17 27.27 65.14 33.22 C65.13 34.73 65.11 36.24 65.08 37.75 C64.91 46.34 64.89 53.72 69.44 61.31 C69.77 62.03 70.09 62.74 70.43 63.48 C71.9 66.15 73.58 66.36 76.44 67.31 C78.75 68.3 81.06 69.29 83.44 70.31 C83.44 76.91 83.44 83.51 83.44 90.31 C72.46 90.31 62.47 88.95 51.88 86.17 C39.62 83.12 27.24 80.97 14.68 79.58 C12.19 79.28 9.72 78.93 7.23 78.56 C-9.96 76.15 -25.88 75.87 -43.56 75.31 C-43.56 51.22 -43.56 27.13 -43.56 2.31 C-28.9 1.09 -14.65 -0.07 0 0 Z "
         fill="#F6B155"
         id="path5"
         style="fill:#979797"
         transform="translate(43.5625,251.6875)" />
      <path
         d="M0 0 C1.02 -0 2.04 -0 3.09 -0 C5.23 -0 7.37 -0 9.51 0 C12.74 0.01 15.98 0 19.21 -0 C39.86 -0.01 58.37 1.54 78.08 8.07 C78.85 8.32 79.63 8.57 80.43 8.83 C84.84 10.29 88.88 12 93.02 14.13 C94.63 14.72 96.26 15.29 97.89 15.82 C103.41 17.77 108.51 20.29 113.65 23.05 C125.68 29.34 138.31 32.3 151.52 34.82 C153.79 35.26 156.06 35.71 158.32 36.16 C159.72 36.43 161.11 36.7 162.51 36.97 C166.47 37.74 170.21 38.8 174.02 40.13 C176.03 40.61 178.05 41.07 180.08 41.51 C184.57 42.5 188.81 43.73 193.14 45.26 C201.57 47.97 210.24 47.95 219.02 48.13 C219.02 47.47 219.02 46.81 219.02 46.13 C231.49 45.99 243.21 46.22 255.39 49.32 C265.08 51.5 274.89 52.66 284.77 53.7 C286.6 53.89 286.6 53.89 288.46 54.09 C297.31 55 306.13 55.73 315.02 56.13 C306.22 64.93 285.49 67.34 273.68 68.74 C271.1 68.85 271.1 68.85 270.02 70.13 C273.98 70.63 273.98 70.63 278.02 71.13 C277.69 71.79 277.36 72.45 277.02 73.13 C276.36 73.13 275.7 73.13 275.02 73.13 C275.02 75.77 275.02 78.41 275.02 81.13 C255.66 82.43 236.42 83.5 217.02 83.13 C217.02 83.79 217.02 84.45 217.02 85.13 C220.32 85.13 223.62 85.13 227.02 85.13 C227.02 85.79 227.02 86.45 227.02 87.13 C209.2 89.53 196.87 85.17 182.02 75.13 C180.14 73.92 178.26 72.71 176.37 71.51 C174.61 70.38 172.86 69.25 171.11 68.11 C163.48 63.23 156.71 59.81 147.83 58.01 C146.23 57.67 144.63 57.34 143.04 57 C142.33 56.86 141.63 56.71 140.91 56.57 C139.02 56.13 139.02 56.13 136.02 55.13 C133.45 54.91 130.9 54.72 128.33 54.57 C127.63 54.53 126.92 54.48 126.2 54.44 C124.47 54.33 122.74 54.23 121.02 54.13 C120.89 53.24 120.77 52.35 120.65 51.43 C120.48 50.26 120.31 49.09 120.14 47.88 C119.98 46.72 119.82 45.56 119.65 44.37 C119.1 41.55 118.46 39.58 117.02 37.13 C113.58 37.4 113.58 37.4 110.02 38.13 C108.22 40.83 107.59 42.28 106.89 45.32 C106.6 46.58 106.31 47.84 106.02 49.13 C93.25 43.55 80.98 37.08 69.77 28.75 C47.33 12.07 22.74 5.86 -4.98 5.45 C-6.55 5.41 -8.11 5.38 -9.68 5.34 C-13.45 5.26 -17.22 5.19 -20.98 5.13 C-20.98 3.81 -20.98 2.49 -20.98 1.13 C-13.97 0.3 -7.06 -0.01 0 0 Z "
         fill="#F6B054"
         id="path6"
         style="fill:#969696"
         transform="translate(20.984375,205.8671875)" />
      <path
         d="m 597.5,192.6875 c 17.48622,-5.39506 14.81726,9.833 14.5,21.18804 0,10.70732 0,21.41464 0,32.12196 -25.83016,-2.39743 -51.5397,-9.29 -77.78816,-6.58295 -11.29124,4.1066 -38.58556,-3.14251 -37.21184,12.53417 0,12.68292 0,25.36585 0,38.04878 15.12872,-5.51876 -1.80351,-48.43852 18.89914,-37.75992 8.01246,19.29457 -2.53261,43.11498 -18.17252,50.25869 1.78563,11.81892 -3.04317,34.83732 -14.72662,20.85082 0,-8.11653 0,-16.23306 0,-24.34959 -19.98091,-0.12968 -20.72681,-22.81961 -19.13,-38.03041 11.24428,-20.45264 10.95534,18.3163 15.13,27.03041 9.58331,-10.74968 -2.7804,-43.68881 3.83631,-62.7432 12.04857,-7.01228 35.64685,-9.66617 53.86119,-15.33555 15.57069,-8.18139 39.16816,-7.00863 43.12875,-15.11344 5.6989,-1.8064 11.72342,-2.30936 17.67375,-2.11781 z"
         fill="#DE913A"
         id="path7"
         style="fill:#808080" />
      <path
         d="m 0,211 c 17.191144,0.20372 34.985048,-2.21236 51.573412,3.58301 17.631977,3.54175 32.650356,13.92622 46.896995,24.34943 C 107.19879,244.73011 116.57704,249.45316 126,254 c 0.69635,-6.08834 5.32608,-15.6505 12.55384,-11.24102 5.66582,8.00061 2.98515,18.20382 3.57659,27.32977 -0.2865,9.91747 0.59584,19.91087 -0.38168,29.785 -3.14831,5.72248 8.65855,2.55261 6.08792,-2.6024 1.80643,-8.99734 1.60015,-18.35679 3.36583,-27.2876 6.28549,-6.65318 12.56058,1.44567 12.02094,8.53057 0.73971,10.07922 0.0836,21.78228 -7.58987,29.21749 -3.63284,4.53827 -12.20132,2.89917 -14.61732,5.71069 0.15581,10.52784 -0.28928,21.05641 -1.01625,31.5575 -6.0668,0.50436 -14.72319,1.56055 -12.66625,-7.39875 C 126.88891,332.40088 126.43871,327.20093 126,322 c -9.63496,-1.92993 -17.82296,-10.20458 -18.15777,-20.26144 -0.39002,-10.01225 -0.27432,-20.08387 0.15777,-30.09231 -0.11644,-5.178 4.30229,-4.91741 8,-4.64625 6.70841,12.73985 0.68504,28.01744 6.67256,41.04857 2.18222,6.30693 5.6318,3.3001 4.21959,-1.54882 C 126.59477,291.33317 126.29738,276.16658 126,261 101.04303,260.06821 76.800933,252.57993 51.762503,252.52485 34.494382,252.05376 17.236858,253.0984 0,254 0,239.66667 0,225.33333 0,211 Z"
         fill="#D3802A"
         id="path8"
         style="fill:#747474" />
      <path
         d="m 405.625,309.5625 c 11.29679,-3.43752 14.37536,11.34674 5.54927,16.21214 -6.73751,6.52124 -16.17913,9.24752 -22.68927,16.05786 -5.43806,1.48739 -10.75867,12.47852 -3.16,14.54 11.78825,10.21195 28.40354,9.91461 42.79813,13.66234 5.28624,1.68505 18.77064,2.38248 18.48248,5.98067 -33.96837,0.10217 -68.08823,-0.91475 -101.74811,-5.68926 -9.30315,-2.03025 -17.77771,-7.06548 -27.49665,-7.40439 -34.94444,-4.79746 -70.29539,-5.76193 -105.25036,-10.38073 -4.19111,0.0277 -16.13831,-4.18013 -5.89507,-5.24044 16.69815,-2.35645 33.89103,-0.98649 50.18208,-6.11835 16.8647,-4.5229 32.4448,-13.51585 50.11407,-15.0064 20.02681,-2.56893 40.72756,0.63504 60.23755,-5.81562 12.94272,-3.64332 24.99815,-11.3054 38.87588,-10.79782 z"
         fill="#D6822B"
         id="path9"
         style="fill:#757575" />
      <path
         d="m 152.10937,28.167969 c 7.8529,4.835058 12.21327,14.213616 10.98229,23.332637 -2.04975,5.010425 2.49614,5.343191 5.90771,6.497363 0.64026,-5.015314 6.82359,-5.908649 10.98299,-6.288318 7.5925,-0.791187 14.95866,5.183802 17.03014,12.165369 -0.86588,4.92572 0.40293,7.466417 5.79687,6.002949 4.72571,-1.480517 8.63056,2.068739 10.41994,4.12 2.43061,2.795654 6.13289,4.664614 10.54507,4.43 3.16291,-2.167584 7.41722,4.8016 3.58508,4.57 -64.78669,0 -129.573388,0 -194.360085,0 3.33107,-7.384468 13.56694,-1.817705 15.81781,-8.5025 4.159332,-6.952871 15.476811,2.558755 15.429612,-6.053594 2.366361,-9.13917 13.850549,-12.872822 21.752578,-8.443906 -0.72862,-6.58463 2.081703,-13.846598 9.540376,-14.512207 4.950919,-1.869756 13.587399,2.784733 12.413529,-5.69845 2.38481,-9.791868 12.04821,-15.541324 21.55629,-16.559871 7.83491,-1.074792 15.78525,1.114171 22.5998,4.940528 z"
         fill="#F4DFB4"
         id="path10"
         style="fill:#b6b6b6" />
      <path
         d="m 474,48 c 6.40162,6.699644 11.38319,14.905182 9.10051,24.293159 6.02401,5.880661 13.74776,-8.371608 22.17723,-2.95197 10.63276,1.484579 9.94194,13.982308 16.88557,19.047286 4.46197,2.706065 19.23385,3.211708 16.13237,8.902664 -10.5941,1.41777 -21.47918,0.434771 -32.20505,0.786794 -46.34411,-0.0043 -92.70531,0.07833 -139.03868,-0.235585 1.09269,-5.756934 12.82842,-6.279151 17.70988,-11.27801 7.31924,-0.107567 13.07846,-2.709741 13.76895,-10.967316 4.65523,-9.669897 18.49539,-12.76733 27.0754,-6.276835 3.7434,-6.534077 2.86889,-15.592396 10.25757,-19.913836 C 446.52876,40.803647 462.51223,41.393696 474,48 Z"
         fill="#F3DDB3"
         id="path11"
         style="fill:#b5b5b5" />
      <path
         d="M0 0 C6.29 1.04 12.59 1.95 18.9 2.87 C21.16 3.21 23.42 3.56 25.68 3.91 C27.08 4.12 28.49 4.33 29.9 4.54 C31.14 4.73 32.38 4.92 33.66 5.12 C37.77 5.67 37.77 5.67 44.21 5.53 C44.21 22.69 44.21 39.85 44.21 57.53 C42.23 57.04 42.23 57.04 40.21 56.53 C37.3 50.82 36.11 46.01 35.96 39.66 C35.93 38.53 35.9 37.4 35.86 36.23 C35.8 33.86 35.74 31.48 35.69 29.11 C35.66 27.97 35.62 26.83 35.59 25.66 C35.56 24.63 35.54 23.6 35.51 22.54 C35.18 19.3 34.34 16.57 33.21 13.53 C31.23 13.2 29.25 12.87 27.21 12.53 C26.12 16.11 26.01 19.54 25.89 23.27 C25.85 24.56 25.81 25.86 25.77 27.19 C25.73 28.55 25.69 29.92 25.65 31.28 C25.6 32.66 25.56 34.04 25.52 35.42 C25.41 38.79 25.31 42.16 25.21 45.53 C24.22 45.53 23.23 45.53 22.21 45.53 C22.21 44.54 22.21 43.55 22.21 42.53 C20.93 42.42 19.65 42.3 18.33 42.18 C13.54 41.75 8.75 41.31 3.96 40.88 C1.89 40.69 -0.17 40.5 -2.24 40.32 C-5.22 40.05 -8.21 39.77 -11.19 39.5 C-12.56 39.38 -12.56 39.38 -13.95 39.25 C-18.33 38.86 -22.7 38.44 -27.08 37.99 C-30.66 37.62 -34.22 37.38 -37.83 37.29 C-38.89 37.25 -39.96 37.22 -41.06 37.19 C-42.16 37.16 -43.27 37.13 -44.42 37.09 C-57.26 36.68 -69.99 35.7 -82.79 34.53 C-82.79 22.98 -82.79 11.43 -82.79 -0.47 C-55.46 -3.33 -27.2 -4.6 0 0 Z "
         fill="#E59539"
         id="path12"
         style="fill:#838383"
         transform="translate(82.79150390625,254.46875)" />
      <path
         d="m 138,242 c 6.80249,8.9951 3.28463,20.83096 4.08909,31.21395 -0.0179,9.48181 0.50132,19.0382 -0.58425,28.45952 9.31348,3.38703 6.26721,-11.76936 8.01753,-17.58709 0.69976,-6.3386 -0.85995,-19.20508 9.49711,-15.91312 6.69006,7.77052 4.77971,20.32758 2.485,29.7238 -1.13801,10.69049 -13.64525,13.09527 -20.16483,15.89483 -0.77666,7.55853 -0.14912,15.22114 -0.80842,22.79558 3.81163,9.57189 -11.93392,12.45275 -13.45546,3.56762 -0.6392,-7.39809 2.36799,-20.00686 -8.37758,-20.9522 -10.4759,-5.44043 -12.02606,-18.34485 -11.00437,-28.88408 1.26356,-7.09818 -4.28044,-24.9263 7.44869,-22.91312 5.84508,4.34776 3.41225,12.95473 4.40305,19.31835 0.12548,7.80082 0.19564,16.01042 3.9524,23.07675 6.91238,3.61571 1.9612,-10.51142 3.44574,-14.22502 0.13757,-15.73934 -0.76077,-31.57091 0.38083,-47.25282 C 128.51018,243.84118 133.39133,240.45358 138,242 Z"
         fill="#7E6A23"
         id="path13"
         style="fill:#555555" />
      <path
         d="m 493,220 c 6.96096,14.45572 2.30169,30.87515 4.26954,46.21324 0.69378,5.77377 -3.5201,24.69199 3.65405,20.78704 6.00895,-9.60827 0.88716,-21.72245 4.07336,-31.86382 9.3813,-15.1572 15.8668,6.63264 13.04846,15.4177 0.86138,13.83813 -8.29083,24.21257 -19.12271,31.18092 -5.20561,7.2657 3.45187,30.60344 -13.32327,24.46906 -8.08678,-8.43074 5.79934,-30.54681 -12.40158,-29.56921 -11.67765,-6.50167 -9.5709,-22.02419 -9.59493,-33.30786 0.95997,-17.13408 16.18412,-2.11195 11.83567,8.09021 -3.55091,7.03952 8.13724,24.54687 7.48583,8.73541 -0.88808,-18.51564 -3.64641,-37.42948 0.2069,-55.78753 C 483.66973,219.76545 489.37626,218.78369 493,220 Z"
         fill="#766421"
         id="path14"
         style="fill:#4f4f4f" />
      <path
         d="M0 0 C4.37 1.02 8.73 1.48 13.19 1.9 C13.19 4.87 13.19 7.84 13.19 10.9 C11.68 10.89 11.68 10.89 10.14 10.87 C6.32 10.83 2.51 10.81 -1.31 10.79 C-2.95 10.78 -4.58 10.77 -6.22 10.75 C-21.05 10.6 -35.17 12.01 -49.75 14.84 C-50.6 15 -51.45 15.15 -52.33 15.31 C-59.16 16.62 -65.74 18.31 -71.93 21.53 C-75.24 23.11 -78.18 23.54 -81.81 23.9 C-81.86 22.94 -81.91 21.97 -81.96 20.98 C-82.03 19.72 -82.11 18.45 -82.18 17.15 C-82.25 15.9 -82.32 14.65 -82.39 13.36 C-82.76 10.29 -83.21 8.48 -84.81 5.9 C-86.46 5.9 -88.11 5.9 -89.81 5.9 C-93.46 13.97 -93.55 21.87 -93.98 30.61 C-94.05 31.73 -94.11 32.85 -94.18 34.01 C-94.23 35.02 -94.28 36.03 -94.33 37.07 C-94.88 40.35 -95.77 42.29 -97.81 44.9 C-99.79 45.4 -99.79 45.4 -101.81 45.9 C-101.81 30.72 -101.81 15.54 -101.81 -0.1 C-68.39 -7.17 -33.43 -7.95 0 0 Z "
         fill="#F6B054"
         id="path15"
         style="fill:#969696"
         transform="translate(598.80859375,244.09765625)" />
      <path
         d="M0 0 C2 0.02 4 0.03 6 0.04 C10.83 0.07 15.67 0.13 20.5 0.19 C18.07 1.81 16.19 2.8 13.5 3.81 C12.82 4.07 12.14 4.33 11.44 4.6 C9.5 5.19 9.5 5.19 6.5 5.19 C6.5 5.85 6.5 6.51 6.5 7.19 C5.48 7.55 5.48 7.55 4.45 7.92 C-0.05 9.54 -4.52 11.18 -8.94 13 C-20.67 17.74 -32.74 21.79 -44.87 25.36 C-47.47 26.13 -47.47 26.13 -49.79 27.16 C-60.88 31.38 -72.52 32.86 -84.26 31.44 C-86.93 31.14 -89.6 30.93 -92.27 30.73 C-120.27 28.61 -120.27 28.61 -132.5 25.19 C-132.5 24.53 -132.5 23.87 -132.5 23.19 C-124.98 21.82 -117.68 21.11 -110.05 20.94 C-91.02 20.51 -74.53 16.39 -57.05 9.05 C-38.46 1.29 -19.87 -0.26 0 0 Z "
         fill="#E99839"
         id="path16"
         style="fill:#858585"
         transform="translate(334.5,324.8125)" />
      <path
         d="m 440.35937,277.46875 c 9.93615,0.75866 39.49134,8.35151 15.86291,13.5809 -39.66954,7.38101 -80.25442,4.27193 -120.2004,8.9591 -13.65514,1.00897 -21.72489,-1.24882 -3.20968,-2.92342 36.34721,-5.02362 69.67948,-33.84841 107.54717,-19.61658 z"
         fill="#E59439"
         id="path17"
         style="fill:#838383" />
      <path
         d="m 126,119 c 0.10882,0.8821 -0.48522,2.46706 0.97276,2 2.51543,-0.0738 2.54711,4.08074 3.02663,5.93452 0.0492,1.80744 -0.51934,3.8994 1.83027,2.50124 3.34283,-0.64721 6.78511,-0.85242 10.17034,-0.43576 2.81973,2.69962 6.33454,3.97704 10.16373,4.46362 2.15186,-0.0526 3.33214,0.67158 2.83627,2.80616 0.12348,1.13256 0.13195,2.15011 -1.29702,1.73022 -25.56766,0 -51.13532,0 -76.70298,0 0.253421,-2.41851 1.464442,-3.57165 3.88,-3.19 3.20109,0.0543 4.315675,-2.62581 4.973613,-5.35526 1.78829,-2.44151 5.532974,-2.67039 8.397422,-2.5534 C 95.64414,126.72149 96.822861,127.36477 98,128 c 1.552596,-4.61278 4.90018,-8.44197 9,-11 6.25447,-1.65024 13.43077,-1.70172 19,2 z"
         fill="#EDDBB4"
         id="path18"
         style="fill:#b2b2b2" />
      <path
         d="M0 0 C0.66 0.33 1.32 0.66 2 1 C1.86 1.67 1.71 2.33 1.56 3.02 C0.2 9.77 -0.24 16.12 0 23 C0.33 22.32 0.65 21.65 0.99 20.95 C1.43 20.06 1.86 19.17 2.31 18.25 C2.74 17.37 3.17 16.49 3.61 15.58 C4.92 13.15 6.14 11.04 8 9 C8.99 9 9.98 9 11 9 C10.37 12.66 9.36 15.88 7.94 19.31 C7.58 20.2 7.21 21.08 6.84 21.99 C6.56 22.65 6.29 23.32 6 24 C6.33 24.33 6.66 24.66 7 25 C7.54 24.49 8.09 23.99 8.64 23.47 C9.72 22.49 9.72 22.49 10.81 21.5 C11.52 20.85 12.23 20.2 12.96 19.53 C15 18 15 18 18 18 C16.63 21.99 14.85 24.88 12 28 C11.34 28 10.68 28 10 28 C10 29.32 10 30.64 10 32 C10.71 31.98 11.43 31.95 12.16 31.93 C17.88 31.82 22.6 32.08 28 34 C19.22 39.85 5 38.18 -5.06 38.19 C-6.32 38.19 -7.57 38.19 -8.86 38.19 C-31.89 38.05 -31.89 38.05 -36 36 C-36 35.34 -36 34.68 -36 34 C-29.02 32.63 -22.09 31.58 -15 31 C-15.71 30.2 -15.71 30.2 -16.43 29.39 C-17.05 28.68 -17.67 27.98 -18.31 27.25 C-18.93 26.55 -19.54 25.86 -20.18 25.14 C-25 19.48 -25 19.48 -25 16 C-21.46 16.56 -20.08 17.66 -17.88 20.44 C-16.3 22.4 -14.78 24.22 -13 26 C-13.33 25.01 -13.66 24.02 -14 23 C-14.09 21.15 -14.13 19.29 -14.12 17.44 C-14.13 16.47 -14.13 15.5 -14.13 14.5 C-14 12 -14 12 -13 10 C-12.34 10 -11.68 10 -11 10 C-10.34 13.63 -9.68 17.26 -9 21 C-8.76 20.14 -8.52 19.29 -8.27 18.4 C-4.06 4.06 -4.06 4.06 0 0 Z "
         fill="#C97E2C"
         id="path19"
         style="fill:#707070"
         transform="translate(532,344)" />
      <path
         d="m 130,253 c 4.34726,5.58291 1.35356,12.91145 2.12611,19.32938 0.12488,23.88929 -0.11871,47.7804 -0.12618,71.67062 5.59456,1.87386 -5.67876,1.8448 -4.77064,-2.60392 -0.85706,-6.42062 0.82016,-13.40736 -2.23268,-19.45381 -9.31961,-2.7022 -17.5402,-11.18015 -17.2557,-21.32078 -0.51386,-9.45466 0.7364,-18.92691 -0.0943,-28.37288 5.15802,-3.82894 6.98408,5.03332 5.79148,8.67554 -0.16303,9.9471 0.55029,19.91966 1.78869,29.76913 1.78245,4.29361 7.69778,6.18276 11.87017,6.59655 C 127.25508,296.19135 127.72374,275.09696 128,254 l 1,-0.5 z"
         fill="#65551C"
         id="path20"
         style="fill:#444444" />
      <path
         d="M0 0 C0.33 0 0.66 0 1 0 C1.33 3.3 1.66 6.6 2 10 C2.78 8.68 3.57 7.36 4.38 6 C5.71 3.75 5.71 3.75 7 2 C7.66 2 8.32 2 9 2 C8.39 6.13 6.96 9.33 5 13 C5.95 12.34 6.9 11.68 7.88 11 C11 9 11 9 13 9 C12.44 12.27 11.5 13.83 9 16 C11.31 16 13.62 16 16 16 C14.02 16.99 14.02 16.99 12 18 C13.98 18.33 15.96 18.66 18 19 C19.12 23.75 19.12 23.75 18 26 C16.41 25.97 16.41 25.97 14.79 25.93 C13.4 25.91 12.01 25.89 10.62 25.88 C9.93 25.86 9.23 25.84 8.51 25.82 C6.67 25.81 4.83 25.9 3 26 C2.34 26.66 1.68 27.32 1 28 C0.67 27.01 0.34 26.02 0 25 C-0.91 25.33 -1.82 25.66 -2.75 26 C-6 27 -6 27 -10 27 C-10 26.34 -10 25.68 -10 25 C-12.64 25 -15.28 25 -18 25 C-17.34 24.67 -16.68 24.34 -16 24 C-15.6 23 -15.6 23 -15.2 21.98 C-14 20 -14 20 -11.62 19.39 C-9.08 19.26 -6.54 19.13 -4 19 C-11.42 18.01 -11.42 18.01 -19 17 C-18 15 -18 15 -16.38 14.38 C-13.23 13.88 -10.17 13.94 -7 14 C-7 11.03 -7 8.06 -7 5 C-6.34 5.33 -5.68 5.66 -5 6 C-4.67 6.99 -4.34 7.98 -4 9 C-2.68 6.03 -1.36 3.06 0 0 Z "
         fill="#F6AF50"
         id="path21"
         style="fill:#959595"
         transform="translate(542,301)" />
      <path
         d="m 508,138 c 1.8922,1.44564 3.79272,3.04733 5,5.09949 0,0.63351 0,1.26701 0,1.90051 3.10419,-0.66013 6.35524,-1.33286 9.4825,-0.37625 1.94021,0.53202 3.73875,1.45566 5.5175,2.37625 0,1 0,2 0,3 -16,0 -32,0 -48,0 0.66667,-1.33333 1.33333,-2.66667 2,-4 2.41503,-0.90809 5.04244,-0.79834 7.57881,-0.97168 1.35697,0.007 2.97562,0.33585 2.52619,-1.55752 0.96392,-3.44336 4.21026,-6.01881 7.74995,-6.40344 2.73877,-0.37977 5.53303,0.0975 8.14505,0.93264 z"
         fill="#EADBB4"
         id="path22"
         style="fill:#b1b1b1" />
      <path
         d="m 482,249 c 1.20883,13.2965 1.10068,26.66301 1,40 -1.66667,-0.33333 -3.33333,-0.66667 -5,-1 -2.84781,-7.61582 -3.72901,-15.76832 -4.25103,-23.82811 -0.24126,-3.66084 -1.00593,-7.42381 -3.2174,-10.43968 -1.29908,-1.1589 1.26293,-1.137 2.01477,-1.66987 2.8567,-0.99854 5.65336,-2.1927 8.56596,-3.01593 0.29309,-0.0508 0.5916,-0.0455 0.8877,-0.0464 z"
         fill="#EDAC52"
         id="path23"
         style="fill:#939393" />
      <path
         d="M0 0 C1.45 0.03 1.45 0.03 2.94 0.06 C4.19 2.97 4.94 4.86 4.94 8.06 C5.8 7.54 5.8 7.54 6.69 7 C9.33 5.9 10.3 6.1 12.94 7.06 C13.6 7.39 14.26 7.72 14.94 8.06 C15.67 10.38 16.34 12.71 16.94 15.06 C6.22 15.51 -4.42 14.18 -15.06 13.06 C-15.06 11.74 -15.06 10.42 -15.06 9.06 C-11.61 6.76 -10.11 6.8 -6.06 7.06 C-5.4 7.39 -4.74 7.72 -4.06 8.06 C-4.08 6.93 -4.1 5.79 -4.12 4.62 C-4.05 0.08 -4.05 0.08 0 0 Z "
         fill="#CA7E2C"
         id="path24"
         style="fill:#707070"
         transform="translate(79.0625,279.9375)" />
      <path
         d="m 472,255 c 1.29526,1.81317 2.34674,3.87713 2.43154,6.14701 0.47268,4.71245 0.5913,9.44967 1.00903,14.16553 0.39102,4.41596 2.11261,8.5423 3.55943,12.68746 1.20417,0.4618 2.94847,1.1934 4,0.82524 0,-1.94175 0,-3.88349 0,-5.82524 0.53922,-0.002 1.25267,-0.17824 1,0.61165 0,2.12945 0,4.2589 0,6.38835 -1.35999,0.34071 -3.03948,0.40676 -4.11723,1.23446 -0.29426,0.58851 -0.58851,1.17703 -0.88277,1.76554 -2.2022,-0.475 -4.4503,-0.81699 -6.60781,-1.45016 -1.83259,-0.16483 -1.81801,-2.1044 -2.20865,-3.513 -0.6646,-3.62959 -0.51593,-7.3458 -0.73827,-11.01621 -0.0512,-3.94412 -0.47937,-7.87048 -1.22518,-11.74265 0.17496,-1.23913 -0.53959,-1.42289 -1.53077,-1.27798 -0.61842,0.16479 -0.9952,-0.25379 -1.36897,-0.67965 C 464.88024,262.88024 464.44012,262.44012 464,262 c 0.10214,-2.36164 0.4323,-4.70502 1,-7 1.75005,-1.01765 3.87675,-1.03649 5.75105,-0.37104 0.41748,0.11976 0.83289,0.24651 1.24895,0.37104 z"
         fill="#846E25"
         id="path25"
         style="fill:#575757" />
      <path
         d="M0 0 C2.96 0.96 5.54 2.08 8 4 C9 6.75 9 6.75 9 9 C5.34 11.44 3.47 11.27 -0.88 11.25 C-2.09 11.26 -3.3 11.26 -4.55 11.27 C-7.82 11.01 -10.07 10.41 -13 9 C-12.67 6.02 -12.13 4.19 -10.44 1.69 C-6.99 -0.7 -4 -0.71 0 0 Z "
         fill="#C1732A"
         id="path26"
         style="fill:#696969"
         transform="translate(456,351)" />
      <path
         d="M0 0 C0.33 0 0.66 0 1 0 C1.5 5.94 1.5 5.94 2 12 C5.96 12 9.92 12 14 12 C14 12.99 14 13.98 14 15 C3.54 17.36 -7.64 17.11 -18.31 17.19 C-19.23 17.2 -20.14 17.21 -21.08 17.23 C-21.94 17.23 -22.79 17.23 -23.68 17.23 C-24.44 17.23 -25.2 17.24 -25.99 17.24 C-28 17 -28 17 -31 15 C-20.74 12.56 -10.58 10.64 0 11 C0 7.37 0 3.74 0 0 Z "
         fill="#C7812D"
         id="path27"
         style="fill:#717171"
         transform="translate(127,332)" />
      <path
         d="M0 0 C0 0.66 0 1.32 0 2 C0.71 1.98 1.43 1.95 2.16 1.93 C7.88 1.82 12.6 2.08 18 4 C6.27 11.82 -16.28 8.17 -30 8 C-30 7.34 -30 6.68 -30 6 C-29.15 5.94 -29.15 5.94 -28.29 5.88 C-25.69 5.69 -23.1 5.47 -20.5 5.25 C-19.61 5.19 -18.73 5.13 -17.81 5.06 C-11.68 4.52 -5.5 0 0 0 Z "
         fill="#DE9237"
         id="path28"
         style="fill:#808080"
         transform="translate(542,374)" />
      <path
         d="M0 0 C0.33 0 0.66 0 1 0 C1.33 3.3 1.66 6.6 2 10 C2.78 8.68 3.57 7.36 4.38 6 C5.71 3.75 5.71 3.75 7 2 C7.66 2 8.32 2 9 2 C8.39 6.13 6.96 9.33 5 13 C5.95 12.34 6.9 11.68 7.88 11 C11 9 11 9 13 9 C12.88 10.81 12.88 10.81 12 13 C5.08 17.34 -3.01 17.77 -11 17 C-11.66 16.34 -12.32 15.68 -13 15 C-10.69 15 -8.38 15 -6 15 C-6.33 11.7 -6.66 8.4 -7 5 C-6.34 5.33 -5.68 5.66 -5 6 C-4.67 6.99 -4.34 7.98 -4 9 C-2.68 6.03 -1.36 3.06 0 0 Z "
         fill="#C98130"
         id="path29"
         style="fill:#727272"
         transform="translate(542,301)" />
      <path
         d="M0 0 C2.45 2.09 3.22 3.76 4.12 6.81 C0.36 8.07 -3.15 7.92 -7.06 7.88 C-7.81 7.87 -8.56 7.87 -9.33 7.86 C-11.18 7.85 -13.03 7.83 -14.88 7.81 C-14.88 5.5 -14.88 3.19 -14.88 0.81 C-10.24 -2.28 -4.95 -2.04 0 0 Z "
         fill="#C77E33"
         id="path30"
         style="fill:#707070"
         transform="translate(194.875,320.1875)" />
      <path
         d="M0 0 C3.12 2.31 3.12 2.31 5 5 C5 5.99 5 6.98 5 8 C-1.27 8 -7.54 8 -14 8 C-14 3 -14 3 -12.31 1.22 C-8.31 -0.89 -4.39 -0.77 0 0 Z "
         fill="#B46923"
         id="path31"
         style="fill:#606060"
         transform="translate(160,371)" />
      <path
         d="M0 0 C0.33 0.99 0.66 1.98 1 3 C2.98 2.67 4.96 2.34 7 2 C7.08 3.9 7.14 5.79 7.19 7.69 C7.22 8.74 7.26 9.8 7.29 10.89 C6.96 14.43 6.22 16.23 4 19 C2.68 19.33 1.36 19.66 0 20 C0 13.4 0 6.8 0 0 Z "
         fill="#DD9D43"
         id="path32"
         style="fill:#868686"
         transform="translate(497,270)" />
      <path
         d="M0 0 C3.8 0.1 6.22 0.79 9.19 3.31 C10 5.5 10 5.5 10.19 7.31 C7.1 8.21 4.33 8.45 1.12 8.44 C-0.16 8.44 -0.16 8.44 -1.47 8.45 C-3.81 8.31 -3.81 8.31 -6.81 7.31 C-6 2.19 -5.58 0.46 0 0 Z "
         fill="#AE601F"
         id="path33"
         style="fill:#5b5b5b"
         transform="translate(54.8125,372.6875)" />
      <path
         d="m 576,337 c 1,0.66667 2,1.33333 3,2 -0.33333,1.33333 -0.66667,2.66667 -1,4 -6,0.33333 -12,0.66667 -18,1 0,-1 0,-2 0,-3 1.66667,0 3.33333,0 5,0 0,-0.66667 0,-1.33333 0,-2 1.34295,-1.48563 3.1291,-2.72717 5.18969,-2.83691 1.96993,-0.13382 3.90789,0.40678 5.81031,0.83691 z"
         fill="#D28736"
         id="path34"
         style="fill:#787878" />
      <path
         d="M0 0 C2.31 0 4.62 0 7 0 C7 4.95 7 9.9 7 15 C5.68 14.67 4.36 14.34 3 14 C0.28 9.15 -0.34 5.63 0 0 Z "
         fill="#EEB059"
         id="path35"
         style="fill:#959595"
         transform="translate(120,297)" />
      <path
         d="M0 0 C0.33 1.32 0.66 2.64 1 4 C-0.65 4.33 -2.3 4.66 -4 5 C3.03 5.24 9.18 4.79 16 3 C16 3.66 16 4.32 16 5 C18.31 5 20.62 5 23 5 C23 5.33 23 5.66 23 6 C19.35 6.84 15.97 7.13 12.22 7.13 C10.58 7.13 10.58 7.13 8.92 7.14 C7.79 7.13 6.66 7.13 5.5 7.12 C3.81 7.13 3.81 7.13 2.08 7.14 C0.99 7.14 -0.1 7.13 -1.22 7.13 C-2.21 7.13 -3.2 7.13 -4.22 7.13 C-6.91 7 -9.37 6.6 -12 6 C-11 4 -11 4 -9.38 3.38 C-6.23 2.88 -3.17 2.94 0 3 C0 2.01 0 1.02 0 0 Z "
         fill="#E19943"
         id="path36"
         style="fill:#858585"
         transform="translate(535,312)" />
    </g>
  </g>
</svg>
