<?xml version="1.0" encoding="UTF-8" standalone="no"?>
<svg
   width="1100"
   height="1100"
   xml:space="preserve"
   overflow="hidden"
   version="1.1"
   id="svg18"
   sodipodi:docname="calculator_medii.svg"
   inkscape:version="1.4 (86a8ad7, 2024-10-11)"
   inkscape:export-filename="icon_normal.png"
   inkscape:export-xdpi="52.012699"
   inkscape:export-ydpi="52.012699"
   xmlns:inkscape="http://www.inkscape.org/namespaces/inkscape"
   xmlns:sodipodi="http://sodipodi.sourceforge.net/DTD/sodipodi-0.dtd"
   xmlns:xlink="http://www.w3.org/1999/xlink"
   xmlns="http://www.w3.org/2000/svg"
   xmlns:svg="http://www.w3.org/2000/svg"><sodipodi:namedview
     id="namedview18"
     pagecolor="#ffffff"
     bordercolor="#000000"
     borderopacity="0.25"
     inkscape:showpageshadow="2"
     inkscape:pageopacity="0.0"
     inkscape:pagecheckerboard="0"
     inkscape:deskcolor="#d1d1d1"
     inkscape:zoom="0.30536652"
     inkscape:cx="445.36644"
     inkscape:cy="461.74021"
     inkscape:window-width="1366"
     inkscape:window-height="697"
     inkscape:window-x="-8"
     inkscape:window-y="-8"
     inkscape:window-maximized="1"
     inkscape:current-layer="svg18" /><defs
     id="defs11"><filter
       id="fx0"
       x="-102"
       y="-109.8"
       width="1224"
       height="1317.6001"
       filterUnits="userSpaceOnUse"
       primitiveUnits="userSpaceOnUse"><feComponentTransfer
         color-interpolation-filters="sRGB"
         id="feComponentTransfer1"><feFuncR
           type="discrete"
           tableValues="0 0"
           id="feFuncR1" /><feFuncG
           type="discrete"
           tableValues="0 0"
           id="feFuncG1" /><feFuncB
           type="discrete"
           tableValues="0 0"
           id="feFuncB1" /><feFuncA
           type="linear"
           slope="0.301961"
           intercept="0"
           id="feFuncA1" /></feComponentTransfer><feGaussianBlur
         stdDeviation="7.30724 7.30724"
         id="feGaussianBlur1" /></filter><filter
       id="fx1"
       x="-102"
       y="-109.8"
       width="1224"
       height="1317.6001"
       filterUnits="userSpaceOnUse"
       primitiveUnits="userSpaceOnUse"><feComponentTransfer
         color-interpolation-filters="sRGB"
         id="feComponentTransfer2"><feFuncR
           type="discrete"
           tableValues="0 0"
           id="feFuncR2" /><feFuncG
           type="discrete"
           tableValues="0 0"
           id="feFuncG2" /><feFuncB
           type="discrete"
           tableValues="0 0"
           id="feFuncB2" /><feFuncA
           type="linear"
           slope="0.301961"
           intercept="0"
           id="feFuncA2" /></feComponentTransfer><feGaussianBlur
         stdDeviation="7.30724 7.30724"
         id="feGaussianBlur2" /></filter><clipPath
       id="clip2"><rect
         x="942"
         y="492"
         width="1020"
         height="1098"
         id="rect2" /></clipPath><clipPath
       id="clip3"><rect
         x="0"
         y="0"
         width="112"
         height="112"
         id="rect3" /></clipPath><linearGradient
       x1="1454.5"
       y1="1341.5"
       x2="1107.5"
       y2="995.50098"
       gradientUnits="userSpaceOnUse"
       spreadMethod="reflect"
       id="fill4"><stop
         offset="0"
         stop-color="#775600"
         id="stop3" /><stop
         offset="0.5"
         stop-color="#AC7E00"
         id="stop4" /><stop
         offset="1"
         stop-color="#CE9700"
         id="stop5" /></linearGradient><clipPath
       id="clip5"><rect
         x="0"
         y="0"
         width="112"
         height="112"
         id="rect5" /></clipPath><linearGradient
       x1="1855.5"
       y1="1341.5"
       x2="1508.5"
       y2="995.50098"
       gradientUnits="userSpaceOnUse"
       spreadMethod="reflect"
       id="fill6"><stop
         offset="0"
         stop-color="#775600"
         id="stop6" /><stop
         offset="0.5"
         stop-color="#AC7E00"
         id="stop7" /><stop
         offset="1"
         stop-color="#CE9700"
         id="stop8" /></linearGradient><linearGradient
       x1="1350.05"
       y1="1058.38"
       x2="1613.95"
       y2="488.61899"
       gradientUnits="userSpaceOnUse"
       spreadMethod="reflect"
       id="fill7"><stop
         offset="0"
         stop-color="#959595"
         id="stop9" /><stop
         offset="0.5"
         stop-color="#D6D6D6"
         id="stop10" /><stop
         offset="1"
         stop-color="#FFFFFF"
         id="stop11" /></linearGradient><linearGradient
       inkscape:collect="always"
       xlink:href="#fill4"
       id="linearGradient1"
       gradientUnits="userSpaceOnUse"
       x1="1454.5"
       y1="1341.5"
       x2="1107.5"
       y2="995.50098"
       spreadMethod="reflect"
       gradientTransform="matrix(1,0,0,0.99918367,-791,-142.18775)" /><linearGradient
       inkscape:collect="always"
       xlink:href="#fill6"
       id="linearGradient2"
       gradientUnits="userSpaceOnUse"
       x1="1855.5"
       y1="1341.5"
       x2="1508.5"
       y2="995.50098"
       spreadMethod="reflect"
       gradientTransform="matrix(1,0,0,0.99918367,-791,-142.18775)" /></defs><g
     clip-path="url(#clip2)"
     transform="translate(-924,-420)"
     id="g18"><path
       d="M 1004,582.917 C 1004,532.705 1044.71,492 1094.92,492 h 762.16 c 50.22,0 90.92,40.705 90.92,90.917 v 763.163 c 0,50.21 -40.7,90.92 -90.92,90.92 h -762.16 c -50.21,0 -90.92,-40.71 -90.92,-90.92 z"
       fill="#ffc000"
       fill-rule="evenodd"
       id="path11" /><g
       filter="url(#fx0)"
       transform="matrix(5.01786,0,0,5.01786,1000,898)"
       id="g13"><g
         clip-path="url(#clip3)"
         id="g12"><path
           d="m 22.2127,33.3339 c 0,-6.2202 5.0424,-11.2627 11.2626,-11.2627 h 45.0494 c 6.2202,0 11.2626,5.0425 11.2626,11.2627 v 45.2446 c 0,6.2202 -5.0424,11.2626 -11.2626,11.2626 H 33.4753 c -6.2202,0 -11.2626,-5.0424 -11.2626,-11.2626 z"
           fill="#ff0000"
           fill-rule="evenodd"
           id="path12" /></g></g><g
       filter="url(#fx1)"
       transform="matrix(5.01786,0,0,5.01786,1401,898)"
       id="g15"><g
         clip-path="url(#clip5)"
         id="g14"><path
           d="m 22.2127,33.3339 c 0,-6.2202 5.0424,-11.2627 11.2627,-11.2627 h 45.0493 c 6.2202,0 11.2627,5.0425 11.2627,11.2627 v 45.2446 c 0,6.2202 -5.0425,11.2626 -11.2627,11.2626 H 33.4754 c -6.2203,0 -11.2627,-5.0424 -11.2627,-11.2626 z"
           fill="#ff0000"
           fill-rule="evenodd"
           id="path14" /></g></g><path
       d="m 1108.5,658.168 c 0,-31.849 25.82,-57.668 57.67,-57.668 h 631.66 c 31.85,0 57.67,25.819 57.67,57.668 v 230.664 c 0,31.849 -25.82,57.668 -57.67,57.668 h -631.66 c -31.85,0 -57.67,-25.819 -57.67,-57.668 z"
       stroke="#bf9000"
       stroke-width="4.58333"
       stroke-miterlimit="8"
       fill="url(#fill7)"
       fill-rule="evenodd"
       id="path18"
       style="fill:#ffffff;fill-opacity:1"
       inkscape:label="path18" /></g><g
     id="g2"
     transform="translate(-133,-277)"
     style="display:inline"><path
       d="M 317,909.62292 C 317,877.79892 342.82,852 374.67,852 h 230.66 c 31.85,0 57.67,25.79892 57.67,57.62292 v 231.47088 c 0,31.824 -25.82,57.6229 -57.67,57.6229 H 374.67 c -31.85,0 -57.67,-25.7989 -57.67,-57.6229 z"
       fill="url(#fill4)"
       fill-rule="evenodd"
       id="path12-4"
       style="fill:url(#linearGradient1);stroke-width:1" /><path
       d="M 718,909.62292 C 718,877.79892 743.82,852 775.67,852 h 230.66 c 31.85,0 57.67,25.79892 57.67,57.62292 v 231.47088 c 0,31.824 -25.82,57.6229 -57.67,57.6229 H 775.67 c -31.85,0 -57.67,-25.7989 -57.67,-57.6229 z"
       fill="url(#fill6)"
       fill-rule="evenodd"
       id="path14-5"
       style="fill:url(#linearGradient2);stroke-width:1" /><path
       d="m 474.4197,1045.9284 h -65.7661 v -39.2126 h 65.7661 v -66.07052 h 39.2446 v 66.07052 h 65.5869 v 39.2126 h -65.5869 v 65.1752 h -39.2446 z"
       id="text14"
       style="font-weight:700;font-size:367px;font-family:'Inter Light', 'Inter Light_MSFontService', sans-serif;fill:#ffffff;stroke-width:1.00081"
       aria-label="+" /><path
       d="M 946.4194,938.59645 877.383,1109.7681 h -32.2991 l 69.0363,-171.17165 z m -54.3661,36.09341 z m -0.6164,-47.06384 z m 3.8216,199.64448 z"
       id="text16-5"
       style="font-weight:900;font-size:202px;font-family:'Inter Black', 'Inter Black_MSFontService', sans-serif;fill:#ffffff;stroke:#ffffff;stroke-width:10;stroke-dasharray:none;stroke-opacity:1"
       aria-label="/" /></g></svg>
